<svg xmlns="http://www.w3.org/2000/svg" viewBox="0 0 512 512">
  <defs>
    <linearGradient id="grad1" x1="0%" y1="0%" x2="100%" y2="100%">
      <stop offset="0%" style="stop-color:#4ADE80;stop-opacity:1" />
      <stop offset="100%" style="stop-color:#3B82F6;stop-opacity:1" />
    </linearGradient>
  </defs>
  <rect width="512" height="512" rx="128" fill="url(#grad1)" />
  <path d="M256 128L64 224l192 96 192-96-192-96zm-160 96v128c0 0 40 40 160 40s160-40 160-40V224M256 368c-64 0-112-24-112-24v-80l112 56 112-56v80c0 0-48 24-112 24z" fill="white" />
  <path d="M416 224v96c0 17.7-14.3 32-32 32s-32-14.3-32-32v-64" fill="none" stroke="white" stroke-width="24" stroke-linecap="round"/>
</svg>
